<mxfile host="app.diagrams.net" modified="2025-09-11T06:45:00.000Z" agent="Mozilla/5.0" version="24.7.1" editor="draw.io" type="device">
  <diagram id="centra-arch" name="Current System">
    <mxGraphModel dx="1380" dy="802" grid="1" gridSize="10" guides="1" tooltips="1" connect="1" arrows="1" fold="1" page="1" pageScale="1" pageWidth="1920" pageHeight="1080" math="0" shadow="0">
      <root>
        <mxCell id="0"/>
        <mxCell id="1" parent="0"/>
        <mxCell id="user" value="User (Browser)" style="shape=actor;whiteSpace=wrap;html=1;" vertex="1" parent="1">
          <mxGeometry x="60" y="120" width="80" height="120" as="geometry"/>
        </mxCell>
        <mxCell id="hosting" value="Amplify Hosting (S3 + CloudFront)\nFrontend: CRA (01_app)" style="rounded=1;whiteSpace=wrap;html=1;fillColor=#d5e8d4;strokeColor=#82b366;" vertex="1" parent="1">
          <mxGeometry x="200" y="120" width="240" height="120" as="geometry"/>
        </mxCell>
        <mxCell id="frontend" value="React App\n.env â†’ REACT_APP_*\nIoT / Cognito / Lambda URL" style="rounded=1;whiteSpace=wrap;html=1;fillColor=#fff2cc;strokeColor=#d6b656;" vertex="1" parent="1">
          <mxGeometry x="470" y="120" width="240" height="120" as="geometry"/>
        </mxCell>
        <mxCell id="cognito" value="Amazon Cognito\nUser Pool + Identity Pool" style="shape=cloud;whiteSpace=wrap;html=1;fillColor=#dae8fc;strokeColor=#6c8ebf;" vertex="1" parent="1">
          <mxGeometry x="470" y="20" width="240" height="80" as="geometry"/>
        </mxCell>
        <mxCell id="iot" value="AWS IoT Core\nATS Endpoint" style="rounded=1;whiteSpace=wrap;html=1;fillColor=#dae8fc;strokeColor=#6c8ebf;" vertex="1" parent="1">
          <mxGeometry x="740" y="210" width="240" height="80" as="geometry"/>
        </mxCell>
        <mxCell id="lambda" value="Lambda (Function URL)\nlogbook-to-sheets" style="rounded=1;whiteSpace=wrap;html=1;fillColor=#e1d5e7;strokeColor=#9673a6;" vertex="1" parent="1">
          <mxGeometry x="1020" y="120" width="240" height="120" as="geometry"/>
        </mxCell>
        <mxCell id="ddb1" value="DynamoDB\nUASLogbookSheets" style="shape=cylinder;whiteSpace=wrap;html=1;fillColor=#f8cecc;strokeColor=#b85450;" vertex="1" parent="1">
          <mxGeometry x="1020" y="270" width="160" height="80" as="geometry"/>
        </mxCell>
        <mxCell id="ddb2" value="DynamoDB\nAircraft" style="shape=cylinder;whiteSpace=wrap;html=1;fillColor=#f8cecc;strokeColor=#b85450;" vertex="1" parent="1">
          <mxGeometry x="1200" y="270" width="160" height="80" as="geometry"/>
        </mxCell>
        <mxCell id="ssm" value="SSM Parameter Store\nSecureString: /shared/google/sa-json" style="rounded=1;whiteSpace=wrap;html=1;fillColor=#ffe6cc;strokeColor=#d79b00;" vertex="1" parent="1">
          <mxGeometry x="1020" y="20" width="240" height="80" as="geometry"/>
        </mxCell>
        <mxCell id="google" value="Google APIs\nDrive + Sheets" style="shape=cloud;whiteSpace=wrap;html=1;fillColor=#f5f5f5;strokeColor=#666666;" vertex="1" parent="1">
          <mxGeometry x="1300" y="120" width="200" height="100" as="geometry"/>
        </mxCell>
        <mxCell id="extapis" value="External APIs\nMapbox / Windy" style="shape=cloud;whiteSpace=wrap;html=1;fillColor=#f5f5f5;strokeColor=#666666;" vertex="1" parent="1">
          <mxGeometry x="470" y="270" width="240" height="80" as="geometry"/>
        </mxCell>
        <mxCell id="e1" edge="1" parent="1" source="user" target="hosting" style="endArrow=block;html=1;strokeColor=#82b366;"/>
        <mxCell id="e2" edge="1" parent="1" source="hosting" target="frontend" style="endArrow=block;html=1;strokeColor=#d6b656;"/>
        <mxCell id="e3" edge="1" parent="1" source="frontend" target="cognito" style="endArrow=block;html=1;strokeColor=#6c8ebf;"/>
        <mxCell id="e5" edge="1" parent="1" source="frontend" target="iot" style="endArrow=block;html=1;strokeColor=#6c8ebf;"/>
        <mxCell id="e6" edge="1" parent="1" source="frontend" target="lambda" style="endArrow=block;html=1;strokeColor=#9673a6;"/>
        <mxCell id="e7" edge="1" parent="1" source="lambda" target="ddb1" style="endArrow=block;html=1;strokeColor=#b85450;"/>
        <mxCell id="e8" edge="1" parent="1" source="lambda" target="ddb2" style="endArrow=block;html=1;strokeColor=#b85450;"/>
        <mxCell id="e9" edge="1" parent="1" source="lambda" target="ssm" style="endArrow=block;html=1;strokeColor=#d79b00;"/>
        <mxCell id="e10" edge="1" parent="1" source="lambda" target="google" style="endArrow=block;html=1;strokeColor=#666666;"/>
        <mxCell id="e11" edge="1" parent="1" source="frontend" target="extapis" style="endArrow=block;html=1;strokeColor=#666666;"/>
        <mxCell id="note1" value="Monorepo: appRoot = 01_app\nAmplify Gen2 buildspec: amplify.yml\nNode 18 build image" style="shape=note;whiteSpace=wrap;html=1;fillColor=#fff2cc;strokeColor=#d6b656;" vertex="1" parent="1">
          <mxGeometry x="200" y="20" width="240" height="80" as="geometry"/>
        </mxCell>
        <mxCell id="note2" value="Env vars (Amplify Console):\nREACT_APP_* (frontend)\nSHEETS_TEMPLATE_ID / DRIVE_FOLDER_ID / SHARE_WITH_EMAILS / PARENT_DRIVE_FOLDER_ID / SSM_GOOGLE_CREDENTIALS_PATH\nAppSync is not used" style="shape=note;whiteSpace=wrap;html=1;fillColor=#fff2cc;strokeColor=#d6b656;" vertex="1" parent="1">
          <mxGeometry x="740" y="20" width="260" height="90" as="geometry"/>
        </mxCell>
      </root>
    </mxGraphModel>
  </diagram>
  </mxfile>

